<?xml version="1.0" encoding="UTF-8"?>
<svg width="200px" height="199px" viewBox="0 0 350 347" version="1.1" xmlns="http://www.w3.org/2000/svg" xmlns:xlink="http://www.w3.org/1999/xlink">
    <!-- Generator: Sketch 58 (84663) - https://sketch.com -->
    <title>box_with_arrow_logo</title>
    <desc>Created with Sketch.</desc>
    <defs>
        <path d="M316.966991,31.6698113 L31.6666667,314.278623" id="path-1"></path>
    </defs>
    <g id="Personal-Logo-Ideas" stroke="none" stroke-width="1" fill="none" fill-rule="evenodd">
        <g id="box_with_arrow_logo">
            <rect id="frame" stroke="#000000" stroke-width="1.68269231" x="0.841346154" y="1.14323295" width="348.317308" height="345.015421"></rect>
            <path id="arrow" d="M320.111475,28.5549928 L314.179898,50.3066099 C313.935403,51.2031965 313.010373,51.7318208 312.113787,51.4873253 C311.264389,51.255698 310.74524,50.4132865 310.900832,49.5629128 L310.933071,49.4212135 L314.447,36.534 L36.554,311.805 L49.4744637,308.41323 C50.3733275,308.177244 51.2933051,308.714613 51.5292913,309.613476 C51.7528572,310.465031 51.282332,311.335536 50.4679071,311.625462 L50.3290454,311.668304 L28.5221832,317.393442 L34.4537595,295.641825 C34.698255,294.745238 35.6232848,294.216614 36.5198713,294.461109 C37.3692691,294.692737 37.8884182,295.535148 37.7328255,296.385522 L37.7005867,296.527221 L34.186,309.414 L312.078,34.143 L299.159194,37.5352044 C298.260331,37.7711906 297.340353,37.2338222 297.104367,36.3349584 C296.880801,35.4834033 297.351326,34.6128983 298.165751,34.3229732 L298.304613,34.2801308 L320.111475,28.5549928 Z" fill="#000000" fill-rule="nonzero"></path>
            <g id="letters" transform="translate(18.666667, 12.000000)" fill="#000000" fill-rule="nonzero">
                <path d="M53.9473126,0.0247896635 L101.537128,145.288462 L95.9500639,145.288462 L81.6830961,101.888944 L19.9260817,101.888944 L5.75888296,145.288462 L0.17181866,145.288462 L47.7616342,0.0247896635 L53.9473126,0.0247896635 Z M50.8544734,7.40769606 L21.6221548,96.5014179 L79.987023,96.5014179 L50.8544734,7.40769606 Z" id="A"></path>
                <polygon id="M" points="224.438786 166.770073 259.258169 258.058713 296.072932 166.770073 304.453529 166.770073 304.453529 312.033745 299.066002 312.033745 299.066002 241.397289 299.26554 174.05321 261.652625 265.142312 256.664175 265.142312 221.844792 175.0509 221.944561 241.397289 221.944561 312.033745 216.557035 312.033745 216.557035 166.770073"></polygon>
            </g>
        </g>
    </g>
</svg>