<?xml version="1.0" encoding="UTF-8"?>
<svg width="160px" height="101px" viewBox="0 0 160 101" version="1.1" xmlns="http://www.w3.org/2000/svg" xmlns:xlink="http://www.w3.org/1999/xlink">
    <!-- Generator: Sketch 61.2 (89653) - https://sketch.com -->
    <title>Letters Logo</title>
    <desc>Created with Sketch.</desc>
    <g id="Logo" stroke="none" stroke-width="1" fill="none" fill-rule="evenodd">
        <g id="Artboard" transform="translate(-462.000000, -499.000000)">
            <g id="Letters-Logo" transform="translate(462.000000, 499.000000)">
                <path d="M42.6796875,23.125 L61.0390625,80 L56.3515625,80 L51.3515625,64.140625 L29.7109375,64.140625 L24.671875,80 L19.9453125,80 L38.4609375,23.125 L42.6796875,23.125 Z M40.5703125,30.0390625 L31.0390625,59.9609375 L50.0234375,59.9609375 L40.5703125,30.0390625 Z" id="Combined-Shape" fill="#2E2B2B" fill-rule="nonzero"></path>
                <polygon id="Path" fill="#2E2B2B" fill-rule="nonzero" points="78.0390625 80.96875 78.0390625 20.96875 76.0390625 20.96875 76.0390625 80.96875"></polygon>
                <polygon id="Path" fill="#2E2B2B" fill-rule="nonzero" points="88.046875 80.96875 88.046875 20.96875 86.046875 20.96875 86.046875 80.96875"></polygon>
                <polygon id="Path" fill="#2E2B2B" fill-rule="nonzero" points="110.117188 80 110.117188 54.8046875 109.726562 29.921875 121.445312 62.890625 124.492188 62.890625 137.109375 29.375 136.757812 54.8046875 136.757812 80 141.328125 80 141.328125 23.125 135.195312 23.125 123.007812 55.3125 111.5625 23.125 105.546875 23.125 105.546875 80"></polygon>
                <rect id="Rectangle" stroke="#000000" x="0.5" y="0.5" width="159" height="100"></rect>
            </g>
        </g>
    </g>
</svg>