<?xml version="1.0" encoding="UTF-8"?>
<svg width="756px" height="193px" viewBox="0 0 756 193" version="1.1" xmlns="http://www.w3.org/2000/svg" xmlns:xlink="http://www.w3.org/1999/xlink">
    <!-- Generator: Sketch 61.2 (89653) - https://sketch.com -->
    <title>Main Logo</title>
    <desc>Created with Sketch.</desc>
    <g id="Page-1" stroke="none" stroke-width="1" fill="none" fill-rule="evenodd">
        <g id="Desktop-HD" transform="translate(-302.000000, -452.000000)" fill="#2E2B2B">
            <g id="Main-Logo" transform="translate(302.000000, 452.000000)">
                <line x1="0.980569948" y1="119.25" x2="755.529145" y2="118.375" id="Line" stroke="#2E2B2B" stroke-width="40"></line>
                <path d="M5.203125,185 L5.203125,174.189453 L12.0585938,174.189453 C13.1367188,174.177734 14.1445312,173.999023 15.0820312,173.65332 C16.0195312,173.307617 16.8339844,172.818359 17.5253906,172.185547 C18.2167969,171.552734 18.7617188,170.791016 19.1601562,169.900391 C19.5585938,169.009766 19.7578125,168.001953 19.7578125,166.876953 C19.7578125,165.751953 19.5615234,164.735352 19.1689453,163.827148 C18.7763672,162.918945 18.234375,162.139648 17.5429688,161.489258 C16.8515625,160.838867 16.0371094,160.334961 15.0996094,159.977539 C14.1621094,159.620117 13.1484375,159.429688 12.0585938,159.40625 L12.0585938,159.40625 L4.25390625,159.40625 L4.25390625,185 L5.203125,185 Z M12.0585938,173.240234 L5.203125,173.240234 L5.203125,160.355469 L12.0585938,160.355469 C13.0078125,160.378906 13.8955078,160.548828 14.7216797,160.865234 C15.5478516,161.181641 16.2626953,161.624023 16.8662109,162.192383 C17.4697266,162.760742 17.9443359,163.443359 18.2900391,164.240234 C18.6357422,165.037109 18.8085938,165.927734 18.8085938,166.912109 C18.8085938,167.884766 18.6298828,168.757812 18.2724609,169.53125 C17.9150391,170.304688 17.4316406,170.963867 16.8222656,171.508789 C16.2128906,172.053711 15.4980469,172.475586 14.6777344,172.774414 C13.8574219,173.073242 12.984375,173.228516 12.0585938,173.240234 L12.0585938,173.240234 Z M29.5488281,185 L29.4960938,172.853516 C29.7539062,171.693359 30.1611328,170.711914 30.7177734,169.90918 C31.2744141,169.106445 31.9306641,168.456055 32.6865234,167.958008 C33.4423828,167.459961 34.2802734,167.102539 35.2001953,166.885742 C36.1201172,166.668945 37.0664062,166.560547 38.0390625,166.560547 C38.4492188,166.560547 38.8623047,166.586914 39.2783203,166.639648 C39.6943359,166.692383 40.0722656,166.748047 40.4121094,166.806641 L40.4121094,166.806641 L40.5175781,165.910156 C40.1308594,165.828125 39.7265625,165.760742 39.3046875,165.708008 C38.8828125,165.655273 38.4609375,165.628906 38.0390625,165.628906 C35.9765625,165.617188 34.2128906,166.036133 32.7480469,166.885742 C31.2832031,167.735352 30.1992188,168.939453 29.4960938,170.498047 L29.4960938,170.498047 L29.4960938,169.285156 L29.390625,165.980469 L28.4589844,165.980469 L28.4589844,185 L29.5488281,185 Z M54.0351562,185.351562 C55.359375,185.351562 56.5341797,185.084961 57.5595703,184.551758 C58.5849609,184.018555 59.4492188,183.3125 60.1523438,182.433594 C60.8554688,181.554688 61.3916016,180.543945 61.7607422,179.401367 C62.1298828,178.258789 62.3203125,177.078125 62.3320312,175.859375 L62.3320312,175.859375 L62.3320312,175.121094 C62.3203125,173.890625 62.1269531,172.704102 61.7519531,171.561523 C61.3769531,170.418945 60.8349609,169.408203 60.1259766,168.529297 C59.4169922,167.650391 58.5498047,166.947266 57.5244141,166.419922 C56.4990234,165.892578 55.3242188,165.628906 54,165.628906 C52.6757812,165.628906 51.5009766,165.895508 50.4755859,166.428711 C49.4501953,166.961914 48.5859375,167.667969 47.8828125,168.546875 C47.1796875,169.425781 46.640625,170.436523 46.265625,171.579102 C45.890625,172.72168 45.6972656,173.902344 45.6855469,175.121094 L45.6855469,175.121094 L45.6855469,175.859375 C45.6972656,177.089844 45.890625,178.276367 46.265625,179.418945 C46.640625,180.561523 47.1826172,181.572266 47.8916016,182.451172 C48.6005859,183.330078 49.4707031,184.033203 50.5019531,184.560547 C51.5332031,185.087891 52.7109375,185.351562 54.0351562,185.351562 Z M54.0351562,184.402344 C52.8632812,184.402344 51.8203125,184.15918 50.90625,183.672852 C49.9921875,183.186523 49.2216797,182.544922 48.5947266,181.748047 C47.9677734,180.951172 47.4873047,180.040039 47.1533203,179.014648 C46.8193359,177.989258 46.6464844,176.9375 46.6347656,175.859375 L46.6347656,175.859375 L46.6347656,175.121094 C46.6464844,174.054688 46.8193359,173.008789 47.1533203,171.983398 C47.4873047,170.958008 47.9677734,170.046875 48.5947266,169.25 C49.2216797,168.453125 49.9892578,167.808594 50.8974609,167.316406 C51.8056641,166.824219 52.8398438,166.578125 54,166.578125 C55.1601562,166.578125 56.1972656,166.824219 57.1113281,167.316406 C58.0253906,167.808594 58.7958984,168.453125 59.4228516,169.25 C60.0498047,170.046875 60.5302734,170.958008 60.8642578,171.983398 C61.1982422,173.008789 61.3710938,174.054688 61.3828125,175.121094 L61.3828125,175.121094 L61.3828125,175.859375 C61.3710938,176.9375 61.2011719,177.986328 60.8730469,179.005859 C60.5449219,180.025391 60.0673828,180.936523 59.4404297,181.739258 C58.8134766,182.541992 58.0488281,183.186523 57.1464844,183.672852 C56.2441406,184.15918 55.2070312,184.402344 54.0351562,184.402344 Z M75.3925781,185.351562 C75.9667969,185.351562 76.546875,185.28125 77.1328125,185.140625 C77.71875,185 78.2841797,184.791992 78.8291016,184.516602 C79.3740234,184.241211 79.8779297,183.907227 80.3408203,183.514648 C80.8037109,183.12207 81.1992188,182.667969 81.5273438,182.152344 L81.5273438,182.152344 L81.5273438,185 L82.4765625,185 L82.4765625,158 L81.5273438,158 L81.5273438,169.25 C81.2109375,168.699219 80.8300781,168.201172 80.3847656,167.755859 C79.9394531,167.310547 79.453125,166.929688 78.9257812,166.613281 C78.3984375,166.296875 77.8388672,166.053711 77.2470703,165.883789 C76.6552734,165.713867 76.0488281,165.628906 75.4277344,165.628906 C74.5019531,165.628906 73.6728516,165.763672 72.9404297,166.033203 C72.2080078,166.302734 71.5664062,166.668945 71.015625,167.131836 C70.4648438,167.594727 69.9931641,168.142578 69.6005859,168.775391 C69.2080078,169.408203 68.8857422,170.082031 68.6337891,170.796875 C68.3818359,171.511719 68.1972656,172.25293 68.0800781,173.020508 C67.9628906,173.788086 67.9042969,174.546875 67.9042969,175.296875 L67.9042969,175.296875 L67.9042969,175.666016 C67.9042969,176.404297 67.9658203,177.157227 68.0888672,177.924805 C68.2119141,178.692383 68.3964844,179.433594 68.6425781,180.148438 C68.8886719,180.863281 69.2080078,181.537109 69.6005859,182.169922 C69.9931641,182.802734 70.4648438,183.353516 71.015625,183.822266 C71.5664062,184.291016 72.2050781,184.663086 72.9316406,184.938477 C73.6582031,185.213867 74.4785156,185.351562 75.3925781,185.351562 Z M75.375,184.402344 C74.5429688,184.402344 73.8076172,184.276367 73.1689453,184.024414 C72.5302734,183.772461 71.9736328,183.429688 71.4990234,182.996094 C71.0244141,182.5625 70.6201172,182.058594 70.2861328,181.484375 C69.9521484,180.910156 69.6826172,180.300781 69.4775391,179.65625 C69.2724609,179.011719 69.1230469,178.34668 69.0292969,177.661133 C68.9355469,176.975586 68.8886719,176.310547 68.8886719,175.666016 L68.8886719,175.666016 L68.8886719,175.296875 C68.8886719,174.652344 68.9384766,173.987305 69.0380859,173.301758 C69.1376953,172.616211 69.2900391,171.951172 69.4951172,171.306641 C69.7001953,170.662109 69.9667969,170.052734 70.2949219,169.478516 C70.6230469,168.904297 71.0302734,168.40332 71.5166016,167.975586 C72.0029297,167.547852 72.5654297,167.208008 73.2041016,166.956055 C73.8427734,166.704102 74.578125,166.578125 75.4101562,166.578125 C76.1015625,166.578125 76.7666016,166.686523 77.4052734,166.90332 C78.0439453,167.120117 78.6298828,167.427734 79.1630859,167.826172 C79.6962891,168.224609 80.1679688,168.702148 80.578125,169.258789 C80.9882812,169.81543 81.3046875,170.433594 81.5273438,171.113281 L81.5273438,171.113281 L81.5273438,180.517578 C81.28125,181.138672 80.9384766,181.692383 80.4990234,182.178711 C80.0595703,182.665039 79.5644531,183.072266 79.0136719,183.400391 C78.4628906,183.728516 77.8740234,183.977539 77.2470703,184.147461 C76.6201172,184.317383 75.9960938,184.402344 75.375,184.402344 Z M96.6269531,185.351562 C98.2558594,185.351562 99.6357422,185.020508 100.766602,184.358398 C101.897461,183.696289 102.767578,182.779297 103.376953,181.607422 L103.376953,181.607422 L103.359375,185 L104.34375,185 L104.34375,165.980469 L103.359375,165.980469 L103.376953,179.146484 C103.212891,179.966797 102.94043,180.702148 102.55957,181.352539 C102.178711,182.00293 101.698242,182.553711 101.118164,183.004883 C100.538086,183.456055 99.8671875,183.801758 99.1054688,184.041992 C98.34375,184.282227 97.5058594,184.402344 96.5917969,184.402344 C95.6425781,184.402344 94.828125,184.238281 94.1484375,183.910156 C93.46875,183.582031 92.9091797,183.130859 92.4697266,182.556641 C92.0302734,181.982422 91.7050781,181.314453 91.4941406,180.552734 C91.2832031,179.791016 91.171875,178.970703 91.1601562,178.091797 L91.1601562,178.091797 L91.1601562,165.980469 L90.2109375,165.980469 L90.2109375,178.056641 C90.2226562,179.087891 90.3574219,180.048828 90.6152344,180.939453 C90.8730469,181.830078 91.2626953,182.600586 91.7841797,183.250977 C92.3056641,183.901367 92.9677734,184.414062 93.7705078,184.789062 C94.5732422,185.164062 95.5253906,185.351562 96.6269531,185.351562 Z M119.091797,185.351562 C120.017578,185.351562 120.899414,185.210938 121.737305,184.929688 C122.575195,184.648438 123.313477,184.244141 123.952148,183.716797 C124.59082,183.189453 125.115234,182.547852 125.525391,181.791992 C125.935547,181.036133 126.1875,180.183594 126.28125,179.234375 L126.28125,179.234375 L125.332031,179.234375 C125.238281,180.066406 125.015625,180.804688 124.664062,181.449219 C124.3125,182.09375 123.858398,182.635742 123.301758,183.075195 C122.745117,183.514648 122.106445,183.845703 121.385742,184.068359 C120.665039,184.291016 119.900391,184.402344 119.091797,184.402344 C117.873047,184.402344 116.827148,184.15918 115.954102,183.672852 C115.081055,183.186523 114.360352,182.544922 113.791992,181.748047 C113.223633,180.951172 112.804688,180.042969 112.535156,179.023438 C112.265625,178.003906 112.125,176.949219 112.113281,175.859375 L112.113281,175.859375 L112.113281,175.121094 C112.125,174.054688 112.265625,173.008789 112.535156,171.983398 C112.804688,170.958008 113.223633,170.043945 113.791992,169.241211 C114.360352,168.438477 115.078125,167.793945 115.945312,167.307617 C116.8125,166.821289 117.849609,166.578125 119.056641,166.578125 C119.912109,166.578125 120.706055,166.712891 121.438477,166.982422 C122.170898,167.251953 122.81543,167.635742 123.37207,168.133789 C123.928711,168.631836 124.376953,169.229492 124.716797,169.926758 C125.056641,170.624023 125.261719,171.400391 125.332031,172.255859 L125.332031,172.255859 L126.28125,172.255859 C126.199219,171.259766 125.964844,170.354492 125.578125,169.540039 C125.191406,168.725586 124.681641,168.02832 124.048828,167.448242 C123.416016,166.868164 122.674805,166.419922 121.825195,166.103516 C120.975586,165.787109 120.052734,165.628906 119.056641,165.628906 C117.720703,165.628906 116.560547,165.898438 115.576172,166.4375 C114.591797,166.976562 113.774414,167.688477 113.124023,168.573242 C112.473633,169.458008 111.987305,170.47168 111.665039,171.614258 C111.342773,172.756836 111.175781,173.925781 111.164062,175.121094 L111.164062,175.121094 L111.164062,175.859375 C111.175781,177.066406 111.342773,178.238281 111.665039,179.375 C111.987305,180.511719 112.476562,181.522461 113.132812,182.407227 C113.789062,183.291992 114.612305,184.003906 115.602539,184.542969 C116.592773,185.082031 117.755859,185.351562 119.091797,185.351562 Z M144.509766,185.351562 C145.001953,185.351562 145.488281,185.339844 145.96875,185.316406 C146.449219,185.292969 146.929688,185.234375 147.410156,185.140625 L147.410156,185.140625 L147.216797,184.244141 C146.302734,184.349609 145.371094,184.402344 144.421875,184.402344 C143.742188,184.402344 143.118164,184.332031 142.549805,184.191406 C141.981445,184.050781 141.486328,183.825195 141.064453,183.514648 C140.642578,183.204102 140.311523,182.799805 140.071289,182.301758 C139.831055,181.803711 139.699219,181.185547 139.675781,180.447266 L139.675781,180.447266 L139.675781,166.947266 L146.53125,166.947266 L146.53125,165.980469 L139.675781,165.980469 L139.693359,160.847656 L138.673828,160.847656 L138.673828,165.980469 L133.083984,165.980469 L133.083984,166.947266 L138.673828,166.947266 L138.673828,180.447266 C138.697266,181.361328 138.855469,182.128906 139.148438,182.75 C139.441406,183.371094 139.845703,183.875 140.361328,184.261719 C140.876953,184.648438 141.486328,184.926758 142.189453,185.09668 C142.892578,185.266602 143.666016,185.351562 144.509766,185.351562 Z M184.113281,189.746094 L184.113281,159.40625 L183.164062,159.40625 L183.164062,189.746094 L184.113281,189.746094 Z M227.408203,185.351562 C228.404297,185.351562 229.376953,185.216797 230.326172,184.947266 C231.275391,184.677734 232.12207,184.273438 232.866211,183.734375 C233.610352,183.195312 234.210938,182.518555 234.667969,181.704102 C235.125,180.889648 235.353516,179.931641 235.353516,178.830078 C235.353516,177.716797 235.116211,176.755859 234.641602,175.947266 C234.166992,175.138672 233.551758,174.450195 232.795898,173.881836 C232.040039,173.313477 231.196289,172.835938 230.264648,172.449219 C229.333008,172.0625 228.410156,171.734375 227.496094,171.464844 C226.980469,171.3125 226.450195,171.142578 225.905273,170.955078 C225.360352,170.767578 224.824219,170.553711 224.296875,170.313477 C223.769531,170.073242 223.274414,169.794922 222.811523,169.478516 C222.348633,169.162109 221.941406,168.801758 221.589844,168.397461 C221.238281,167.993164 220.959961,167.533203 220.754883,167.017578 C220.549805,166.501953 220.453125,165.921875 220.464844,165.277344 C220.476562,164.375 220.6875,163.592773 221.097656,162.930664 C221.507812,162.268555 222.041016,161.720703 222.697266,161.287109 C223.353516,160.853516 224.085938,160.53125 224.894531,160.320312 C225.703125,160.109375 226.505859,160.003906 227.302734,160.003906 C228.251953,160.003906 229.125,160.15625 229.921875,160.460938 C230.71875,160.765625 231.416016,161.193359 232.013672,161.744141 C232.611328,162.294922 233.094727,162.954102 233.463867,163.72168 C233.833008,164.489258 234.064453,165.335938 234.158203,166.261719 L234.158203,166.261719 L235.089844,166.261719 C235.042969,165.171875 234.811523,164.181641 234.395508,163.291016 C233.979492,162.400391 233.425781,161.644531 232.734375,161.023438 C232.042969,160.402344 231.231445,159.918945 230.299805,159.573242 C229.368164,159.227539 228.369141,159.054688 227.302734,159.054688 C226.365234,159.054688 225.436523,159.186523 224.516602,159.450195 C223.59668,159.713867 222.767578,160.106445 222.029297,160.62793 C221.291016,161.149414 220.69043,161.802734 220.227539,162.587891 C219.764648,163.373047 219.533203,164.28125 219.533203,165.3125 C219.521484,166.039062 219.624023,166.692383 219.84082,167.272461 C220.057617,167.852539 220.353516,168.374023 220.728516,168.836914 C221.103516,169.299805 221.542969,169.709961 222.046875,170.067383 C222.550781,170.424805 223.089844,170.744141 223.664062,171.025391 C224.238281,171.306641 224.830078,171.558594 225.439453,171.78125 C226.048828,172.003906 226.646484,172.203125 227.232422,172.378906 C228.041016,172.625 228.870117,172.915039 229.719727,173.249023 C230.569336,173.583008 231.339844,173.996094 232.03125,174.488281 C232.722656,174.980469 233.291016,175.581055 233.736328,176.290039 C234.181641,176.999023 234.398438,177.857422 234.386719,178.865234 C234.386719,179.837891 234.18457,180.672852 233.780273,181.370117 C233.375977,182.067383 232.845703,182.638672 232.189453,183.083984 C231.533203,183.529297 230.786133,183.860352 229.948242,184.077148 C229.110352,184.293945 228.263672,184.402344 227.408203,184.402344 C226.400391,184.402344 225.454102,184.270508 224.569336,184.006836 C223.68457,183.743164 222.899414,183.347656 222.213867,182.820312 C221.52832,182.292969 220.96582,181.639648 220.526367,180.860352 C220.086914,180.081055 219.814453,179.169922 219.708984,178.126953 L219.708984,178.126953 L218.777344,178.126953 C218.824219,179.310547 219.09375,180.350586 219.585938,181.24707 C220.078125,182.143555 220.716797,182.896484 221.501953,183.505859 C222.287109,184.115234 223.189453,184.575195 224.208984,184.885742 C225.228516,185.196289 226.294922,185.351562 227.408203,185.351562 Z M247.851562,185.351562 C249.480469,185.351562 250.860352,185.020508 251.991211,184.358398 C253.12207,183.696289 253.992188,182.779297 254.601562,181.607422 L254.601562,181.607422 L254.583984,185 L255.568359,185 L255.568359,165.980469 L254.583984,165.980469 L254.601562,179.146484 C254.4375,179.966797 254.165039,180.702148 253.78418,181.352539 C253.40332,182.00293 252.922852,182.553711 252.342773,183.004883 C251.762695,183.456055 251.091797,183.801758 250.330078,184.041992 C249.568359,184.282227 248.730469,184.402344 247.816406,184.402344 C246.867188,184.402344 246.052734,184.238281 245.373047,183.910156 C244.693359,183.582031 244.133789,183.130859 243.694336,182.556641 C243.254883,181.982422 242.929688,181.314453 242.71875,180.552734 C242.507812,179.791016 242.396484,178.970703 242.384766,178.091797 L242.384766,178.091797 L242.384766,165.980469 L241.435547,165.980469 L241.435547,178.056641 C241.447266,179.087891 241.582031,180.048828 241.839844,180.939453 C242.097656,181.830078 242.487305,182.600586 243.008789,183.250977 C243.530273,183.901367 244.192383,184.414062 244.995117,184.789062 C245.797852,185.164062 246.75,185.351562 247.851562,185.351562 Z M264.058594,192.3125 L264.058594,182.222656 C264.386719,182.726562 264.785156,183.171875 265.253906,183.558594 C265.722656,183.945312 266.226562,184.270508 266.765625,184.53418 C267.304688,184.797852 267.867188,185 268.453125,185.140625 C269.039062,185.28125 269.619141,185.351562 270.193359,185.351562 C271.107422,185.351562 271.927734,185.213867 272.654297,184.938477 C273.380859,184.663086 274.019531,184.291016 274.570312,183.822266 C275.121094,183.353516 275.592773,182.802734 275.985352,182.169922 C276.37793,181.537109 276.697266,180.863281 276.943359,180.148438 C277.189453,179.433594 277.374023,178.692383 277.49707,177.924805 C277.620117,177.157227 277.681641,176.404297 277.681641,175.666016 L277.681641,175.666016 L277.681641,175.296875 C277.669922,174.546875 277.608398,173.788086 277.49707,173.020508 C277.385742,172.25293 277.204102,171.511719 276.952148,170.796875 C276.700195,170.082031 276.37793,169.408203 275.985352,168.775391 C275.592773,168.142578 275.121094,167.594727 274.570312,167.131836 C274.019531,166.668945 273.37793,166.302734 272.645508,166.033203 C271.913086,165.763672 271.083984,165.628906 270.158203,165.628906 C269.548828,165.628906 268.948242,165.710938 268.356445,165.875 C267.764648,166.039062 267.205078,166.273438 266.677734,166.578125 C266.150391,166.882812 265.661133,167.251953 265.209961,167.685547 C264.758789,168.119141 264.375,168.605469 264.058594,169.144531 L264.058594,169.144531 L264.058594,165.980469 L263.109375,165.980469 L263.109375,192.3125 L264.058594,192.3125 Z M270.210938,184.402344 C269.589844,184.402344 268.962891,184.317383 268.330078,184.147461 C267.697266,183.977539 267.105469,183.728516 266.554688,183.400391 C266.003906,183.072266 265.508789,182.665039 265.069336,182.178711 C264.629883,181.692383 264.292969,181.132812 264.058594,180.5 L264.058594,180.5 L264.058594,171.113281 C264.28125,170.433594 264.594727,169.81543 264.999023,169.258789 C265.40332,168.702148 265.875,168.224609 266.414062,167.826172 C266.953125,167.427734 267.541992,167.120117 268.180664,166.90332 C268.819336,166.686523 269.484375,166.578125 270.175781,166.578125 C271.007812,166.578125 271.746094,166.704102 272.390625,166.956055 C273.035156,167.208008 273.597656,167.547852 274.078125,167.975586 C274.558594,168.40332 274.96582,168.901367 275.299805,169.469727 C275.633789,170.038086 275.90332,170.644531 276.108398,171.289062 C276.313477,171.933594 276.46582,172.598633 276.56543,173.28418 C276.665039,173.969727 276.714844,174.640625 276.714844,175.296875 L276.714844,175.296875 L276.714844,175.666016 C276.703125,176.322266 276.650391,176.990234 276.556641,177.669922 C276.462891,178.349609 276.313477,179.011719 276.108398,179.65625 C275.90332,180.300781 275.636719,180.910156 275.308594,181.484375 C274.980469,182.058594 274.576172,182.5625 274.095703,182.996094 C273.615234,183.429688 273.052734,183.772461 272.408203,184.024414 C271.763672,184.276367 271.03125,184.402344 270.210938,184.402344 Z M285.662109,192.3125 L285.662109,182.222656 C285.990234,182.726562 286.388672,183.171875 286.857422,183.558594 C287.326172,183.945312 287.830078,184.270508 288.369141,184.53418 C288.908203,184.797852 289.470703,185 290.056641,185.140625 C290.642578,185.28125 291.222656,185.351562 291.796875,185.351562 C292.710938,185.351562 293.53125,185.213867 294.257812,184.938477 C294.984375,184.663086 295.623047,184.291016 296.173828,183.822266 C296.724609,183.353516 297.196289,182.802734 297.588867,182.169922 C297.981445,181.537109 298.300781,180.863281 298.546875,180.148438 C298.792969,179.433594 298.977539,178.692383 299.100586,177.924805 C299.223633,177.157227 299.285156,176.404297 299.285156,175.666016 L299.285156,175.666016 L299.285156,175.296875 C299.273438,174.546875 299.211914,173.788086 299.100586,173.020508 C298.989258,172.25293 298.807617,171.511719 298.555664,170.796875 C298.303711,170.082031 297.981445,169.408203 297.588867,168.775391 C297.196289,168.142578 296.724609,167.594727 296.173828,167.131836 C295.623047,166.668945 294.981445,166.302734 294.249023,166.033203 C293.516602,165.763672 292.6875,165.628906 291.761719,165.628906 C291.152344,165.628906 290.551758,165.710938 289.959961,165.875 C289.368164,166.039062 288.808594,166.273438 288.28125,166.578125 C287.753906,166.882812 287.264648,167.251953 286.813477,167.685547 C286.362305,168.119141 285.978516,168.605469 285.662109,169.144531 L285.662109,169.144531 L285.662109,165.980469 L284.712891,165.980469 L284.712891,192.3125 L285.662109,192.3125 Z M291.814453,184.402344 C291.193359,184.402344 290.566406,184.317383 289.933594,184.147461 C289.300781,183.977539 288.708984,183.728516 288.158203,183.400391 C287.607422,183.072266 287.112305,182.665039 286.672852,182.178711 C286.233398,181.692383 285.896484,181.132812 285.662109,180.5 L285.662109,180.5 L285.662109,171.113281 C285.884766,170.433594 286.198242,169.81543 286.602539,169.258789 C287.006836,168.702148 287.478516,168.224609 288.017578,167.826172 C288.556641,167.427734 289.145508,167.120117 289.78418,166.90332 C290.422852,166.686523 291.087891,166.578125 291.779297,166.578125 C292.611328,166.578125 293.349609,166.704102 293.994141,166.956055 C294.638672,167.208008 295.201172,167.547852 295.681641,167.975586 C296.162109,168.40332 296.569336,168.901367 296.90332,169.469727 C297.237305,170.038086 297.506836,170.644531 297.711914,171.289062 C297.916992,171.933594 298.069336,172.598633 298.168945,173.28418 C298.268555,173.969727 298.318359,174.640625 298.318359,175.296875 L298.318359,175.296875 L298.318359,175.666016 C298.306641,176.322266 298.253906,176.990234 298.160156,177.669922 C298.066406,178.349609 297.916992,179.011719 297.711914,179.65625 C297.506836,180.300781 297.240234,180.910156 296.912109,181.484375 C296.583984,182.058594 296.179688,182.5625 295.699219,182.996094 C295.21875,183.429688 294.65625,183.772461 294.011719,184.024414 C293.367188,184.276367 292.634766,184.402344 291.814453,184.402344 Z M321.328125,185 L321.328125,184.050781 L314.648438,184.050781 L314.648438,158 L306.650391,158 L306.650391,158.949219 L313.699219,158.949219 L313.699219,184.050781 L306.650391,184.050781 L306.650391,185 L321.328125,185 Z M328.253906,192.681641 C329.027344,192.681641 329.712891,192.567383 330.310547,192.338867 C330.908203,192.110352 331.438477,191.793945 331.901367,191.389648 C332.364258,190.985352 332.774414,190.510742 333.131836,189.96582 C333.489258,189.420898 333.814453,188.820312 334.107422,188.164062 L334.107422,188.164062 L344.109375,165.980469 L342.966797,165.980469 L335.232422,183.171875 L335.003906,183.699219 L326.636719,165.980469 L325.529297,165.980469 L334.458984,184.964844 L333.140625,187.988281 C332.894531,188.539062 332.613281,189.045898 332.296875,189.508789 C331.980469,189.97168 331.617188,190.370117 331.207031,190.704102 C330.796875,191.038086 330.333984,191.295898 329.818359,191.477539 C329.302734,191.65918 328.728516,191.75 328.095703,191.75 C327.849609,191.75 327.603516,191.732422 327.357422,191.697266 C327.111328,191.662109 326.871094,191.626953 326.636719,191.591797 L326.636719,191.591797 L326.671875,192.488281 C327.210938,192.617188 327.738281,192.681641 328.253906,192.681641 Z M378.087891,185.351562 C379.294922,185.363281 380.375977,185.152344 381.331055,184.71875 C382.286133,184.285156 383.109375,183.696289 383.800781,182.952148 C384.492188,182.208008 385.045898,181.337891 385.461914,180.341797 C385.87793,179.345703 386.150391,178.285156 386.279297,177.160156 L386.279297,177.160156 L385.347656,177.160156 C385.183594,178.15625 384.919922,179.09668 384.556641,179.981445 C384.193359,180.866211 383.71582,181.636719 383.124023,182.292969 C382.532227,182.949219 381.820312,183.467773 380.988281,183.848633 C380.15625,184.229492 379.189453,184.414062 378.087891,184.402344 C377.197266,184.402344 376.400391,184.25 375.697266,183.945312 C374.994141,183.640625 374.370117,183.230469 373.825195,182.714844 C373.280273,182.199219 372.814453,181.601562 372.427734,180.921875 C372.041016,180.242188 371.72168,179.524414 371.469727,178.768555 C371.217773,178.012695 371.033203,177.236328 370.916016,176.439453 C370.798828,175.642578 370.734375,174.869141 370.722656,174.119141 L370.722656,174.119141 L370.722656,170.251953 C370.734375,169.513672 370.798828,168.746094 370.916016,167.949219 C371.033203,167.152344 371.217773,166.375977 371.469727,165.620117 C371.72168,164.864258 372.043945,164.146484 372.436523,163.466797 C372.829102,162.787109 373.294922,162.192383 373.833984,161.682617 C374.373047,161.172852 374.99707,160.768555 375.706055,160.469727 C376.415039,160.170898 377.208984,160.015625 378.087891,160.003906 C379.177734,159.992188 380.135742,160.176758 380.961914,160.557617 C381.788086,160.938477 382.5,161.457031 383.097656,162.113281 C383.695312,162.769531 384.178711,163.537109 384.547852,164.416016 C384.916992,165.294922 385.183594,166.226562 385.347656,167.210938 L385.347656,167.210938 L386.279297,167.210938 C386.150391,166.085938 385.87793,165.025391 385.461914,164.029297 C385.045898,163.033203 384.492188,162.166016 383.800781,161.427734 C383.109375,160.689453 382.283203,160.106445 381.322266,159.678711 C380.361328,159.250977 379.283203,159.042969 378.087891,159.054688 C377.103516,159.066406 376.21875,159.233398 375.433594,159.555664 C374.648438,159.87793 373.951172,160.314453 373.341797,160.865234 C372.732422,161.416016 372.205078,162.060547 371.759766,162.798828 C371.314453,163.537109 370.945312,164.319336 370.652344,165.145508 C370.359375,165.97168 370.142578,166.827148 370.001953,167.711914 C369.861328,168.59668 369.785156,169.455078 369.773438,170.287109 L369.773438,170.287109 L369.773438,174.119141 C369.785156,174.962891 369.861328,175.821289 370.001953,176.694336 C370.142578,177.567383 370.359375,178.419922 370.652344,179.251953 C370.945312,180.083984 371.311523,180.869141 371.750977,181.607422 C372.19043,182.345703 372.717773,182.990234 373.333008,183.541016 C373.948242,184.091797 374.648438,184.53125 375.433594,184.859375 C376.21875,185.1875 377.103516,185.351562 378.087891,185.351562 Z M393.574219,185 L393.574219,172.660156 C393.75,171.839844 394.054688,171.060547 394.488281,170.322266 C394.921875,169.583984 395.452148,168.939453 396.079102,168.388672 C396.706055,167.837891 397.40625,167.398438 398.179688,167.070312 C398.953125,166.742188 399.767578,166.572266 400.623047,166.560547 C401.583984,166.548828 402.404297,166.695312 403.083984,167 C403.763672,167.304688 404.323242,167.729492 404.762695,168.274414 C405.202148,168.819336 405.524414,169.469727 405.729492,170.225586 C405.93457,170.981445 406.042969,171.804688 406.054688,172.695312 L406.054688,172.695312 L406.054688,185 L407.021484,185 L407.021484,172.695312 C407.009766,171.675781 406.87793,170.732422 406.625977,169.865234 C406.374023,168.998047 405.990234,168.250977 405.474609,167.624023 C404.958984,166.99707 404.302734,166.507812 403.505859,166.15625 C402.708984,165.804688 401.765625,165.628906 400.675781,165.628906 C399.84375,165.628906 399.064453,165.754883 398.337891,166.006836 C397.611328,166.258789 396.946289,166.604492 396.342773,167.043945 C395.739258,167.483398 395.203125,168.004883 394.734375,168.608398 C394.265625,169.211914 393.878906,169.865234 393.574219,170.568359 L393.574219,170.568359 L393.574219,158 L392.607422,158 L392.607422,185 L393.574219,185 Z M419.730469,185.351562 C420.515625,185.351562 421.283203,185.269531 422.033203,185.105469 C422.783203,184.941406 423.492188,184.698242 424.160156,184.375977 C424.828125,184.053711 425.446289,183.646484 426.014648,183.154297 C426.583008,182.662109 427.072266,182.09375 427.482422,181.449219 C427.494141,182.046875 427.523438,182.638672 427.570312,183.224609 C427.617188,183.810547 427.710938,184.402344 427.851562,185 L427.851562,185 L428.958984,185 L428.941406,184.841797 C428.824219,184.208984 428.712891,183.599609 428.607422,183.013672 C428.501953,182.427734 428.443359,181.8125 428.431641,181.167969 L428.431641,181.167969 L428.431641,171.640625 C428.408203,170.644531 428.211914,169.768555 427.842773,169.012695 C427.473633,168.256836 426.972656,167.629883 426.339844,167.131836 C425.707031,166.633789 424.97168,166.258789 424.133789,166.006836 C423.295898,165.754883 422.408203,165.628906 421.470703,165.628906 C420.638672,165.628906 419.803711,165.746094 418.96582,165.980469 C418.12793,166.214844 417.366211,166.563477 416.680664,167.026367 C415.995117,167.489258 415.426758,168.066406 414.975586,168.757812 C414.524414,169.449219 414.275391,170.257812 414.228516,171.183594 L414.228516,171.183594 L415.177734,171.21875 C415.212891,170.421875 415.429688,169.733398 415.828125,169.15332 C416.226562,168.573242 416.724609,168.092773 417.322266,167.711914 C417.919922,167.331055 418.584961,167.046875 419.317383,166.859375 C420.049805,166.671875 420.767578,166.578125 421.470703,166.578125 C422.267578,166.578125 423.026367,166.680664 423.74707,166.885742 C424.467773,167.09082 425.100586,167.398438 425.645508,167.808594 C426.19043,168.21875 426.626953,168.740234 426.955078,169.373047 C427.283203,170.005859 427.458984,170.75 427.482422,171.605469 L427.482422,171.605469 L427.482422,174.382812 L422.789062,174.382812 C421.734375,174.394531 420.667969,174.488281 419.589844,174.664062 C418.511719,174.839844 417.536133,175.147461 416.663086,175.586914 C415.790039,176.026367 415.078125,176.618164 414.527344,177.362305 C413.976562,178.106445 413.701172,179.046875 413.701172,180.183594 C413.701172,181.015625 413.871094,181.753906 414.210938,182.398438 C414.550781,183.042969 415.001953,183.582031 415.564453,184.015625 C416.126953,184.449219 416.771484,184.780273 417.498047,185.008789 C418.224609,185.237305 418.96875,185.351562 419.730469,185.351562 Z M419.730469,184.419922 C419.132812,184.419922 418.532227,184.329102 417.928711,184.147461 C417.325195,183.96582 416.780273,183.699219 416.293945,183.347656 C415.807617,182.996094 415.412109,182.55957 415.107422,182.038086 C414.802734,181.516602 414.650391,180.921875 414.650391,180.253906 C414.638672,179.585938 414.75293,179.00293 414.993164,178.504883 C415.233398,178.006836 415.555664,177.576172 415.959961,177.212891 C416.364258,176.849609 416.838867,176.550781 417.383789,176.316406 C417.928711,176.082031 418.505859,175.894531 419.115234,175.753906 C419.724609,175.613281 420.348633,175.513672 420.987305,175.455078 C421.625977,175.396484 422.244141,175.361328 422.841797,175.349609 L422.841797,175.349609 L427.482422,175.349609 L427.482422,179.849609 C427.130859,180.599609 426.685547,181.261719 426.146484,181.835938 C425.607422,182.410156 425.000977,182.890625 424.327148,183.277344 C423.65332,183.664062 422.926758,183.954102 422.147461,184.147461 C421.368164,184.34082 420.5625,184.431641 419.730469,184.419922 Z M443.671875,161.814453 C444.140625,161.814453 444.46582,161.685547 444.647461,161.427734 C444.829102,161.169922 444.919922,160.882812 444.919922,160.566406 C444.919922,160.402344 444.899414,160.241211 444.858398,160.083008 C444.817383,159.924805 444.74707,159.78418 444.647461,159.661133 C444.547852,159.538086 444.418945,159.441406 444.260742,159.371094 C444.102539,159.300781 443.90625,159.265625 443.671875,159.265625 C443.425781,159.265625 443.223633,159.300781 443.06543,159.371094 C442.907227,159.441406 442.78125,159.538086 442.6875,159.661133 C442.59375,159.78418 442.529297,159.924805 442.494141,160.083008 C442.458984,160.241211 442.441406,160.402344 442.441406,160.566406 C442.441406,160.882812 442.526367,161.169922 442.696289,161.427734 C442.866211,161.685547 443.191406,161.814453 443.671875,161.814453 Z M450.949219,185 L450.949219,184.050781 L444.199219,184.050781 L444.199219,165.980469 L436.271484,165.980469 L436.271484,166.929688 L443.25,166.929688 L443.25,184.050781 L436.271484,184.050781 L436.271484,185 L450.949219,185 Z M458.367188,185 L458.367188,172.660156 C458.542969,171.839844 458.847656,171.060547 459.28125,170.322266 C459.714844,169.583984 460.242188,168.939453 460.863281,168.388672 C461.484375,167.837891 462.181641,167.398438 462.955078,167.070312 C463.728516,166.742188 464.542969,166.572266 465.398438,166.560547 C466.359375,166.548828 467.179688,166.695312 467.859375,167 C468.539062,167.304688 469.095703,167.729492 469.529297,168.274414 C469.962891,168.819336 470.282227,169.469727 470.487305,170.225586 C470.692383,170.981445 470.800781,171.804688 470.8125,172.695312 L470.8125,172.695312 L470.8125,185 L471.779297,185 L471.761719,172.695312 C471.75,171.675781 471.621094,170.732422 471.375,169.865234 C471.128906,168.998047 470.748047,168.250977 470.232422,167.624023 C469.716797,166.99707 469.063477,166.507812 468.272461,166.15625 C467.481445,165.804688 466.541016,165.628906 465.451172,165.628906 C464.619141,165.628906 463.839844,165.754883 463.113281,166.006836 C462.386719,166.258789 461.72168,166.601562 461.118164,167.035156 C460.514648,167.46875 459.981445,167.987305 459.518555,168.59082 C459.055664,169.194336 458.671875,169.847656 458.367188,170.550781 L458.367188,170.550781 L458.367188,165.980469 L457.400391,165.980469 L457.400391,185 L458.367188,185 Z M508.166016,189.746094 L508.166016,159.40625 L507.216797,159.40625 L507.216797,189.746094 L508.166016,189.746094 Z M543.216797,185 L545.712891,177.353516 L556.59375,177.353516 L559.107422,185 L560.091797,185 L551.707031,159.40625 L550.617188,159.40625 L542.232422,185 L543.216797,185 Z M556.294922,176.404297 L546.011719,176.404297 L551.162109,160.707031 L556.294922,176.404297 Z M566.384766,185 L566.384766,172.660156 C566.560547,171.839844 566.865234,171.060547 567.298828,170.322266 C567.732422,169.583984 568.259766,168.939453 568.880859,168.388672 C569.501953,167.837891 570.199219,167.398438 570.972656,167.070312 C571.746094,166.742188 572.560547,166.572266 573.416016,166.560547 C574.376953,166.548828 575.197266,166.695312 575.876953,167 C576.556641,167.304688 577.113281,167.729492 577.546875,168.274414 C577.980469,168.819336 578.299805,169.469727 578.504883,170.225586 C578.709961,170.981445 578.818359,171.804688 578.830078,172.695312 L578.830078,172.695312 L578.830078,185 L579.796875,185 L579.779297,172.695312 C579.767578,171.675781 579.638672,170.732422 579.392578,169.865234 C579.146484,168.998047 578.765625,168.250977 578.25,167.624023 C577.734375,166.99707 577.081055,166.507812 576.290039,166.15625 C575.499023,165.804688 574.558594,165.628906 573.46875,165.628906 C572.636719,165.628906 571.857422,165.754883 571.130859,166.006836 C570.404297,166.258789 569.739258,166.601562 569.135742,167.035156 C568.532227,167.46875 567.999023,167.987305 567.536133,168.59082 C567.073242,169.194336 566.689453,169.847656 566.384766,170.550781 L566.384766,170.550781 L566.384766,165.980469 L565.417969,165.980469 L565.417969,185 L566.384766,185 Z M592.558594,185.351562 C593.34375,185.351562 594.111328,185.269531 594.861328,185.105469 C595.611328,184.941406 596.320312,184.698242 596.988281,184.375977 C597.65625,184.053711 598.274414,183.646484 598.842773,183.154297 C599.411133,182.662109 599.900391,182.09375 600.310547,181.449219 C600.322266,182.046875 600.351562,182.638672 600.398438,183.224609 C600.445312,183.810547 600.539062,184.402344 600.679688,185 L600.679688,185 L601.787109,185 L601.769531,184.841797 C601.652344,184.208984 601.541016,183.599609 601.435547,183.013672 C601.330078,182.427734 601.271484,181.8125 601.259766,181.167969 L601.259766,181.167969 L601.259766,171.640625 C601.236328,170.644531 601.040039,169.768555 600.670898,169.012695 C600.301758,168.256836 599.800781,167.629883 599.167969,167.131836 C598.535156,166.633789 597.799805,166.258789 596.961914,166.006836 C596.124023,165.754883 595.236328,165.628906 594.298828,165.628906 C593.466797,165.628906 592.631836,165.746094 591.793945,165.980469 C590.956055,166.214844 590.194336,166.563477 589.508789,167.026367 C588.823242,167.489258 588.254883,168.066406 587.803711,168.757812 C587.352539,169.449219 587.103516,170.257812 587.056641,171.183594 L587.056641,171.183594 L588.005859,171.21875 C588.041016,170.421875 588.257812,169.733398 588.65625,169.15332 C589.054688,168.573242 589.552734,168.092773 590.150391,167.711914 C590.748047,167.331055 591.413086,167.046875 592.145508,166.859375 C592.87793,166.671875 593.595703,166.578125 594.298828,166.578125 C595.095703,166.578125 595.854492,166.680664 596.575195,166.885742 C597.295898,167.09082 597.928711,167.398438 598.473633,167.808594 C599.018555,168.21875 599.455078,168.740234 599.783203,169.373047 C600.111328,170.005859 600.287109,170.75 600.310547,171.605469 L600.310547,171.605469 L600.310547,174.382812 L595.617188,174.382812 C594.5625,174.394531 593.496094,174.488281 592.417969,174.664062 C591.339844,174.839844 590.364258,175.147461 589.491211,175.586914 C588.618164,176.026367 587.90625,176.618164 587.355469,177.362305 C586.804688,178.106445 586.529297,179.046875 586.529297,180.183594 C586.529297,181.015625 586.699219,181.753906 587.039062,182.398438 C587.378906,183.042969 587.830078,183.582031 588.392578,184.015625 C588.955078,184.449219 589.599609,184.780273 590.326172,185.008789 C591.052734,185.237305 591.796875,185.351562 592.558594,185.351562 Z M592.558594,184.419922 C591.960937,184.419922 591.360352,184.329102 590.756836,184.147461 C590.15332,183.96582 589.608398,183.699219 589.12207,183.347656 C588.635742,182.996094 588.240234,182.55957 587.935547,182.038086 C587.630859,181.516602 587.478516,180.921875 587.478516,180.253906 C587.466797,179.585938 587.581055,179.00293 587.821289,178.504883 C588.061523,178.006836 588.383789,177.576172 588.788086,177.212891 C589.192383,176.849609 589.666992,176.550781 590.211914,176.316406 C590.756836,176.082031 591.333984,175.894531 591.943359,175.753906 C592.552734,175.613281 593.176758,175.513672 593.81543,175.455078 C594.454102,175.396484 595.072266,175.361328 595.669922,175.349609 L595.669922,175.349609 L600.310547,175.349609 L600.310547,179.849609 C599.958984,180.599609 599.513672,181.261719 598.974609,181.835938 C598.435547,182.410156 597.829102,182.890625 597.155273,183.277344 C596.481445,183.664062 595.754883,183.954102 594.975586,184.147461 C594.196289,184.34082 593.390625,184.431641 592.558594,184.419922 Z M623.777344,185 L623.777344,184.050781 L617.097656,184.050781 L617.097656,158 L609.099609,158 L609.099609,158.949219 L616.148438,158.949219 L616.148438,184.050781 L609.099609,184.050781 L609.099609,185 L623.777344,185 Z M630.703125,192.681641 C631.476562,192.681641 632.162109,192.567383 632.759766,192.338867 C633.357422,192.110352 633.887695,191.793945 634.350586,191.389648 C634.813477,190.985352 635.223633,190.510742 635.581055,189.96582 C635.938477,189.420898 636.263672,188.820312 636.556641,188.164062 L636.556641,188.164062 L646.558594,165.980469 L645.416016,165.980469 L637.681641,183.171875 L637.453125,183.699219 L629.085938,165.980469 L627.978516,165.980469 L636.908203,184.964844 L635.589844,187.988281 C635.34375,188.539062 635.0625,189.045898 634.746094,189.508789 C634.429688,189.97168 634.066406,190.370117 633.65625,190.704102 C633.246094,191.038086 632.783203,191.295898 632.267578,191.477539 C631.751953,191.65918 631.177734,191.75 630.544922,191.75 C630.298828,191.75 630.052734,191.732422 629.806641,191.697266 C629.560547,191.662109 629.320312,191.626953 629.085938,191.591797 L629.085938,191.591797 L629.121094,192.488281 C629.660156,192.617188 630.1875,192.681641 630.703125,192.681641 Z M662.994141,185.351562 C663.486328,185.351562 663.972656,185.339844 664.453125,185.316406 C664.933594,185.292969 665.414062,185.234375 665.894531,185.140625 L665.894531,185.140625 L665.701172,184.244141 C664.787109,184.349609 663.855469,184.402344 662.90625,184.402344 C662.226562,184.402344 661.602539,184.332031 661.03418,184.191406 C660.46582,184.050781 659.970703,183.825195 659.548828,183.514648 C659.126953,183.204102 658.795898,182.799805 658.555664,182.301758 C658.31543,181.803711 658.183594,181.185547 658.160156,180.447266 L658.160156,180.447266 L658.160156,166.947266 L665.015625,166.947266 L665.015625,165.980469 L658.160156,165.980469 L658.177734,160.847656 L657.158203,160.847656 L657.158203,165.980469 L651.568359,165.980469 L651.568359,166.947266 L657.158203,166.947266 L657.158203,180.447266 C657.181641,181.361328 657.339844,182.128906 657.632812,182.75 C657.925781,183.371094 658.330078,183.875 658.845703,184.261719 C659.361328,184.648438 659.970703,184.926758 660.673828,185.09668 C661.376953,185.266602 662.150391,185.351562 662.994141,185.351562 Z M681.310547,161.814453 C681.779297,161.814453 682.104492,161.685547 682.286133,161.427734 C682.467773,161.169922 682.558594,160.882812 682.558594,160.566406 C682.558594,160.402344 682.538086,160.241211 682.49707,160.083008 C682.456055,159.924805 682.385742,159.78418 682.286133,159.661133 C682.186523,159.538086 682.057617,159.441406 681.899414,159.371094 C681.741211,159.300781 681.544922,159.265625 681.310547,159.265625 C681.064453,159.265625 680.862305,159.300781 680.704102,159.371094 C680.545898,159.441406 680.419922,159.538086 680.326172,159.661133 C680.232422,159.78418 680.167969,159.924805 680.132812,160.083008 C680.097656,160.241211 680.080078,160.402344 680.080078,160.566406 C680.080078,160.882812 680.165039,161.169922 680.334961,161.427734 C680.504883,161.685547 680.830078,161.814453 681.310547,161.814453 Z M688.587891,185 L688.587891,184.050781 L681.837891,184.050781 L681.837891,165.980469 L673.910156,165.980469 L673.910156,166.929688 L680.888672,166.929688 L680.888672,184.050781 L673.910156,184.050781 L673.910156,185 L688.587891,185 Z M702.386719,185.351562 C703.3125,185.351562 704.194336,185.210938 705.032227,184.929688 C705.870117,184.648438 706.608398,184.244141 707.24707,183.716797 C707.885742,183.189453 708.410156,182.547852 708.820312,181.791992 C709.230469,181.036133 709.482422,180.183594 709.576172,179.234375 L709.576172,179.234375 L708.626953,179.234375 C708.533203,180.066406 708.310547,180.804688 707.958984,181.449219 C707.607422,182.09375 707.15332,182.635742 706.59668,183.075195 C706.040039,183.514648 705.401367,183.845703 704.680664,184.068359 C703.959961,184.291016 703.195312,184.402344 702.386719,184.402344 C701.167969,184.402344 700.12207,184.15918 699.249023,183.672852 C698.375977,183.186523 697.655273,182.544922 697.086914,181.748047 C696.518555,180.951172 696.099609,180.042969 695.830078,179.023438 C695.560547,178.003906 695.419922,176.949219 695.408203,175.859375 L695.408203,175.859375 L695.408203,175.121094 C695.419922,174.054688 695.560547,173.008789 695.830078,171.983398 C696.099609,170.958008 696.518555,170.043945 697.086914,169.241211 C697.655273,168.438477 698.373047,167.793945 699.240234,167.307617 C700.107422,166.821289 701.144531,166.578125 702.351562,166.578125 C703.207031,166.578125 704.000977,166.712891 704.733398,166.982422 C705.46582,167.251953 706.110352,167.635742 706.666992,168.133789 C707.223633,168.631836 707.671875,169.229492 708.011719,169.926758 C708.351562,170.624023 708.556641,171.400391 708.626953,172.255859 L708.626953,172.255859 L709.576172,172.255859 C709.494141,171.259766 709.259766,170.354492 708.873047,169.540039 C708.486328,168.725586 707.976562,168.02832 707.34375,167.448242 C706.710938,166.868164 705.969727,166.419922 705.120117,166.103516 C704.270508,165.787109 703.347656,165.628906 702.351562,165.628906 C701.015625,165.628906 699.855469,165.898438 698.871094,166.4375 C697.886719,166.976562 697.069336,167.688477 696.418945,168.573242 C695.768555,169.458008 695.282227,170.47168 694.959961,171.614258 C694.637695,172.756836 694.470703,173.925781 694.458984,175.121094 L694.458984,175.121094 L694.458984,175.859375 C694.470703,177.066406 694.637695,178.238281 694.959961,179.375 C695.282227,180.511719 695.771484,181.522461 696.427734,182.407227 C697.083984,183.291992 697.907227,184.003906 698.897461,184.542969 C699.887695,185.082031 701.050781,185.351562 702.386719,185.351562 Z M724.236328,185.351562 C724.751953,185.351562 725.288086,185.313477 725.844727,185.237305 C726.401367,185.161133 726.946289,185.043945 727.479492,184.885742 C728.012695,184.727539 728.522461,184.516602 729.008789,184.25293 C729.495117,183.989258 729.919922,183.672852 730.283203,183.303711 C730.646484,182.93457 730.939453,182.506836 731.162109,182.020508 C731.384766,181.53418 731.496094,180.980469 731.496094,180.359375 C731.496094,179.410156 731.273438,178.619141 730.828125,177.986328 C730.382812,177.353516 729.811523,176.832031 729.114258,176.421875 C728.416992,176.011719 727.655273,175.683594 726.829102,175.4375 C726.00293,175.191406 725.214844,174.986328 724.464844,174.822266 C724.066406,174.740234 723.629883,174.646484 723.155273,174.541016 C722.680664,174.435547 722.208984,174.306641 721.740234,174.154297 C721.271484,174.001953 720.817383,173.820312 720.37793,173.609375 C719.938477,173.398438 719.551758,173.143555 719.217773,172.844727 C718.883789,172.545898 718.617188,172.197266 718.417969,171.798828 C718.21875,171.400391 718.125,170.931641 718.136719,170.392578 C718.148438,169.654297 718.353516,169.041992 718.751953,168.555664 C719.150391,168.069336 719.648438,167.679688 720.246094,167.386719 C720.84375,167.09375 721.485352,166.885742 722.170898,166.762695 C722.856445,166.639648 723.492188,166.578125 724.078125,166.578125 C724.769531,166.578125 725.487305,166.660156 726.231445,166.824219 C726.975586,166.988281 727.661133,167.249023 728.288086,167.606445 C728.915039,167.963867 729.433594,168.426758 729.84375,168.995117 C730.253906,169.563477 730.470703,170.251953 730.494141,171.060547 L730.494141,171.060547 L731.478516,171.060547 C731.408203,170.076172 731.150391,169.241211 730.705078,168.555664 C730.259766,167.870117 729.694336,167.310547 729.008789,166.876953 C728.323242,166.443359 727.552734,166.126953 726.697266,165.927734 C725.841797,165.728516 724.96875,165.628906 724.078125,165.628906 C723.597656,165.628906 723.09375,165.666992 722.566406,165.743164 C722.039062,165.819336 721.520508,165.936523 721.010742,166.094727 C720.500977,166.25293 720.014648,166.458008 719.551758,166.709961 C719.088867,166.961914 718.68457,167.266602 718.338867,167.624023 C717.993164,167.981445 717.714844,168.391602 717.503906,168.854492 C717.292969,169.317383 717.1875,169.841797 717.1875,170.427734 C717.175781,171.048828 717.275391,171.59668 717.486328,172.071289 C717.697266,172.545898 717.978516,172.958984 718.330078,173.310547 C718.681641,173.662109 719.094727,173.960938 719.569336,174.207031 C720.043945,174.453125 720.539062,174.666992 721.054688,174.848633 C721.570312,175.030273 722.097656,175.182617 722.636719,175.305664 C723.175781,175.428711 723.685547,175.542969 724.166016,175.648438 C724.564453,175.730469 724.998047,175.833008 725.466797,175.956055 C725.935547,176.079102 726.410156,176.225586 726.890625,176.395508 C727.371094,176.56543 727.831055,176.770508 728.270508,177.010742 C728.709961,177.250977 729.099609,177.529297 729.439453,177.845703 C729.779297,178.162109 730.048828,178.52832 730.248047,178.944336 C730.447266,179.360352 730.546875,179.826172 730.546875,180.341797 C730.535156,180.857422 730.429688,181.311523 730.230469,181.704102 C730.03125,182.09668 729.764648,182.445312 729.430664,182.75 C729.09668,183.054688 728.712891,183.30957 728.279297,183.514648 C727.845703,183.719727 727.397461,183.889648 726.93457,184.024414 C726.47168,184.15918 726.005859,184.255859 725.537109,184.314453 C725.068359,184.373047 724.634766,184.402344 724.236328,184.402344 C723.521484,184.402344 722.783203,184.337891 722.021484,184.208984 C721.259766,184.080078 720.55957,183.854492 719.920898,183.532227 C719.282227,183.209961 718.737305,182.776367 718.286133,182.231445 C717.834961,181.686523 717.5625,180.998047 717.46875,180.166016 L717.46875,180.166016 L716.501953,180.166016 C716.548828,180.810547 716.695312,181.387695 716.941406,181.897461 C717.1875,182.407227 717.503906,182.852539 717.890625,183.233398 C718.277344,183.614258 718.719727,183.939453 719.217773,184.208984 C719.71582,184.478516 720.243164,184.698242 720.799805,184.868164 C721.356445,185.038086 721.927734,185.161133 722.513672,185.237305 C723.099609,185.313477 723.673828,185.351562 724.236328,185.351562 Z" id="Product|SupplyChain|Analytics" fill-rule="nonzero"></path>
                <path d="M94.15625,49.765625 L94.15625,47.4609375 L63.21875,33.984375 L94.15625,20.5078125 L94.15625,18.2421875 L60.328125,33.0078125 L60.328125,34.9609375 L94.15625,49.765625 Z M108.960938,60 L114.507812,43.0078125 L138.6875,43.0078125 L144.273438,60 L146.460938,60 L127.828125,3.125 L125.40625,3.125 L106.773438,60 L108.960938,60 Z M138.023438,40.8984375 L115.171875,40.8984375 L126.617188,6.015625 L138.023438,40.8984375 Z M191.96875,60 L191.96875,57.890625 L177.125,57.890625 L177.125,0 L159.351562,0 L159.351562,2.109375 L175.015625,2.109375 L175.015625,57.890625 L159.351562,57.890625 L159.351562,60 L191.96875,60 Z M223.726562,60.78125 C226.643229,60.78125 229.358073,60.2278646 231.871094,59.1210938 C234.384115,58.0143229 236.539062,56.2890625 238.335938,53.9453125 L238.335938,53.9453125 L236.8125,52.890625 C235.119792,54.921875 233.173177,56.40625 230.972656,57.34375 C228.772135,58.28125 226.356771,58.7369792 223.726562,58.7109375 C221.148438,58.6848958 218.811198,58.1445312 216.714844,57.0898438 C214.61849,56.0351562 212.821615,54.6289062 211.324219,52.8710938 C209.826823,51.1132812 208.661458,49.0950521 207.828125,46.8164062 C206.994792,44.5377604 206.565104,42.1875 206.539062,39.765625 L206.539062,39.765625 L206.539062,37.4609375 L239.625,37.4609375 L239.625,35 C239.598958,32.578125 239.195312,30.2734375 238.414062,28.0859375 C237.632812,25.8984375 236.519531,23.9778646 235.074219,22.3242188 C233.628906,20.6705729 231.877604,19.3619792 229.820312,18.3984375 C227.763021,17.4348958 225.458333,16.953125 222.90625,16.953125 C220.041667,16.953125 217.476562,17.5585938 215.210938,18.7695312 C212.945312,19.9804688 211.018229,21.5755208 209.429688,23.5546875 C207.841146,25.5338542 206.617188,27.7864583 205.757812,30.3125 C204.898438,32.8385417 204.455729,35.4166667 204.429688,38.046875 L204.429688,38.046875 L204.429688,39.765625 C204.455729,42.5 204.9375,45.1302083 205.875,47.65625 C206.8125,50.1822917 208.121094,52.421875 209.800781,54.375 C211.480469,56.328125 213.498698,57.8841146 215.855469,59.0429688 C218.21224,60.2018229 220.835938,60.78125 223.726562,60.78125 Z M237.515625,35.3515625 L206.734375,35.3515625 C206.994792,33.2421875 207.548177,31.2044271 208.394531,29.2382812 C209.240885,27.2721354 210.347656,25.5338542 211.714844,24.0234375 C213.082031,22.5130208 214.703125,21.3085938 216.578125,20.4101562 C218.453125,19.5117188 220.5625,19.0625 222.90625,19.0625 C225.067708,19.0625 227.046875,19.4921875 228.84375,20.3515625 C230.640625,21.2109375 232.177083,22.3697917 233.453125,23.828125 C234.729167,25.2864583 235.72526,26.9661458 236.441406,28.8671875 C237.157552,30.7682292 237.515625,32.7604167 237.515625,34.84375 L237.515625,34.84375 L237.515625,35.3515625 Z M254.664062,60 L270.523438,40.15625 L286.460938,60 L289.195312,60 L271.890625,38.3203125 L288.335938,17.734375 L285.523438,17.734375 L270.5625,36.484375 L255.5625,17.734375 L252.75,17.734375 L269.195312,38.3203125 L251.890625,60 L254.664062,60 Z M351.421875,60 L351.421875,32.34375 L351.382812,6.3671875 L365.015625,41.640625 L366.96875,41.640625 L381.695312,5.9765625 L381.617188,32.34375 L381.617188,60 L383.726562,60 L383.726562,3.125 L380.445312,3.125 L366.03125,38.8671875 L352.398438,3.125 L349.3125,3.125 L349.3125,60 L351.421875,60 Z M415.757812,60.78125 C418.674479,60.78125 421.389323,60.2278646 423.902344,59.1210938 C426.415365,58.0143229 428.570312,56.2890625 430.367188,53.9453125 L430.367188,53.9453125 L428.84375,52.890625 C427.151042,54.921875 425.204427,56.40625 423.003906,57.34375 C420.803385,58.28125 418.388021,58.7369792 415.757812,58.7109375 C413.179688,58.6848958 410.842448,58.1445312 408.746094,57.0898438 C406.64974,56.0351562 404.852865,54.6289062 403.355469,52.8710938 C401.858073,51.1132812 400.692708,49.0950521 399.859375,46.8164062 C399.026042,44.5377604 398.596354,42.1875 398.570312,39.765625 L398.570312,39.765625 L398.570312,37.4609375 L431.65625,37.4609375 L431.65625,35 C431.630208,32.578125 431.226562,30.2734375 430.445312,28.0859375 C429.664062,25.8984375 428.550781,23.9778646 427.105469,22.3242188 C425.660156,20.6705729 423.908854,19.3619792 421.851562,18.3984375 C419.794271,17.4348958 417.489583,16.953125 414.9375,16.953125 C412.072917,16.953125 409.507812,17.5585938 407.242188,18.7695312 C404.976562,19.9804688 403.049479,21.5755208 401.460938,23.5546875 C399.872396,25.5338542 398.648438,27.7864583 397.789062,30.3125 C396.929688,32.8385417 396.486979,35.4166667 396.460938,38.046875 L396.460938,38.046875 L396.460938,39.765625 C396.486979,42.5 396.96875,45.1302083 397.90625,47.65625 C398.84375,50.1822917 400.152344,52.421875 401.832031,54.375 C403.511719,56.328125 405.529948,57.8841146 407.886719,59.0429688 C410.24349,60.2018229 412.867188,60.78125 415.757812,60.78125 Z M429.546875,35.3515625 L398.765625,35.3515625 C399.026042,33.2421875 399.579427,31.2044271 400.425781,29.2382812 C401.272135,27.2721354 402.378906,25.5338542 403.746094,24.0234375 C405.113281,22.5130208 406.734375,21.3085938 408.609375,20.4101562 C410.484375,19.5117188 412.59375,19.0625 414.9375,19.0625 C417.098958,19.0625 419.078125,19.4921875 420.875,20.3515625 C422.671875,21.2109375 424.208333,22.3697917 425.484375,23.828125 C426.760417,25.2864583 427.75651,26.9661458 428.472656,28.8671875 C429.188802,30.7682292 429.546875,32.7604167 429.546875,34.84375 L429.546875,34.84375 L429.546875,35.3515625 Z M447.398438,77.0703125 C449.117188,77.0703125 450.640625,76.8164062 451.96875,76.3085938 C453.296875,75.8007812 454.47526,75.0976562 455.503906,74.1992188 C456.532552,73.3007812 457.44401,72.2460938 458.238281,71.0351562 C459.032552,69.8242188 459.755208,68.4895833 460.40625,67.03125 L460.40625,67.03125 L482.632812,17.734375 L480.09375,17.734375 L462.90625,55.9375 L462.398438,57.109375 L443.804688,17.734375 L441.34375,17.734375 L461.1875,59.921875 L458.257812,66.640625 C457.710938,67.8645833 457.085938,68.9908854 456.382812,70.0195312 C455.679688,71.0481771 454.872396,71.9335938 453.960938,72.6757812 C453.049479,73.4179688 452.020833,73.9908854 450.875,74.3945312 C449.729167,74.7981771 448.453125,75 447.046875,75 C446.5,75 445.953125,74.9609375 445.40625,74.8828125 C444.859375,74.8046875 444.325521,74.7265625 443.804688,74.6484375 L443.804688,74.6484375 L443.882812,76.640625 C445.080729,76.9270833 446.252604,77.0703125 447.398438,77.0703125 Z M511.773438,60.78125 C514.690104,60.78125 517.404948,60.2278646 519.917969,59.1210938 C522.43099,58.0143229 524.585938,56.2890625 526.382812,53.9453125 L526.382812,53.9453125 L524.859375,52.890625 C523.166667,54.921875 521.220052,56.40625 519.019531,57.34375 C516.81901,58.28125 514.403646,58.7369792 511.773438,58.7109375 C509.195312,58.6848958 506.858073,58.1445312 504.761719,57.0898438 C502.665365,56.0351562 500.86849,54.6289062 499.371094,52.8710938 C497.873698,51.1132812 496.708333,49.0950521 495.875,46.8164062 C495.041667,44.5377604 494.611979,42.1875 494.585938,39.765625 L494.585938,39.765625 L494.585938,37.4609375 L527.671875,37.4609375 L527.671875,35 C527.645833,32.578125 527.242188,30.2734375 526.460938,28.0859375 C525.679688,25.8984375 524.566406,23.9778646 523.121094,22.3242188 C521.675781,20.6705729 519.924479,19.3619792 517.867188,18.3984375 C515.809896,17.4348958 513.505208,16.953125 510.953125,16.953125 C508.088542,16.953125 505.523438,17.5585938 503.257812,18.7695312 C500.992188,19.9804688 499.065104,21.5755208 497.476562,23.5546875 C495.888021,25.5338542 494.664062,27.7864583 493.804688,30.3125 C492.945312,32.8385417 492.502604,35.4166667 492.476562,38.046875 L492.476562,38.046875 L492.476562,39.765625 C492.502604,42.5 492.984375,45.1302083 493.921875,47.65625 C494.859375,50.1822917 496.167969,52.421875 497.847656,54.375 C499.527344,56.328125 501.545573,57.8841146 503.902344,59.0429688 C506.259115,60.2018229 508.882812,60.78125 511.773438,60.78125 Z M525.5625,35.3515625 L494.78125,35.3515625 C495.041667,33.2421875 495.595052,31.2044271 496.441406,29.2382812 C497.28776,27.2721354 498.394531,25.5338542 499.761719,24.0234375 C501.128906,22.5130208 502.75,21.3085938 504.625,20.4101562 C506.5,19.5117188 508.609375,19.0625 510.953125,19.0625 C513.114583,19.0625 515.09375,19.4921875 516.890625,20.3515625 C518.6875,21.2109375 520.223958,22.3697917 521.5,23.828125 C522.776042,25.2864583 523.772135,26.9661458 524.488281,28.8671875 C525.204427,30.7682292 525.5625,32.7604167 525.5625,34.84375 L525.5625,34.84375 L525.5625,35.3515625 Z M551.734375,60 L551.617188,33.0078125 C552.190104,30.4296875 553.095052,28.2486979 554.332031,26.4648438 C555.56901,24.6809896 557.027344,23.2356771 558.707031,22.1289063 C560.386719,21.0221354 562.248698,20.2278646 564.292969,19.7460938 C566.33724,19.2643229 568.440104,19.0234375 570.601562,19.0234375 C571.513021,19.0234375 572.43099,19.0820313 573.355469,19.1992188 C574.279948,19.3164063 575.119792,19.4401042 575.875,19.5703125 L575.875,19.5703125 L576.109375,17.578125 C575.25,17.3958333 574.351562,17.2460938 573.414062,17.1289063 C572.476562,17.0117188 571.539062,16.953125 570.601562,16.953125 C566.018229,16.9270833 562.098958,17.8580729 558.84375,19.7460938 C555.588542,21.6341146 553.179688,24.3098958 551.617188,27.7734375 L551.617188,27.7734375 L551.617188,25.078125 L551.382812,17.734375 L549.3125,17.734375 L549.3125,60 L551.734375,60 Z M596.34375,64.8828125 L620.09375,3.125 L617.789062,3.125 L594.039062,64.8828125 L596.34375,64.8828125 Z M637.4375,49.6484375 L671.226562,34.84375 L671.226562,32.890625 L637.4375,18.125 L637.476562,20.4296875 L668.101562,33.90625 L637.476562,47.34375 L637.4375,49.6484375 Z" id="&lt;AlexMeyer/&gt;" fill-rule="nonzero"></path>
            </g>
        </g>
    </g>
</svg>